<?xml version="1.0" standalone="no"?><!-- Generator: Gravit.io --><svg xmlns="http://www.w3.org/2000/svg" xmlns:xlink="http://www.w3.org/1999/xlink" style="isolation:isolate" viewBox="0 0 80 79" width="80" height="79"><defs><clipPath id="_clipPath_KP3WgXLYKQDRMP6IYc1QVp2qUpvPjek9"><rect width="80" height="79"/></clipPath></defs><g clip-path="url(#_clipPath_KP3WgXLYKQDRMP6IYc1QVp2qUpvPjek9)"><path d=" M 75.8 4.138 L 75.8 76.264 L 2.2 76.264 L 2.2 4.138 L 75.8 4.138 Z  M 79 1 L -1 1 L -1 79.398 L 79 79.398 L 79 1 Z  M 39 21.8 C 29.28 21.8 21.4 29.68 21.4 39.4 C 21.4 49.12 29.28 57 39 57 C 48.72 57 56.6 49.12 56.6 39.4 C 56.6 29.68 48.72 21.8 39 21.8 Z  M 39 25 C 46.94 25 53.4 31.46 53.4 39.4 C 53.4 47.34 46.94 53.8 39 53.8 C 31.06 53.8 24.6 47.34 24.6 39.4 C 24.6 31.46 31.06 25 39 25 Z " fill-rule="evenodd" fill="rgb(255,255,255)"/></g></svg>