<svg viewBox="0 0 80 81" xmlns="http://www.w3.org/2000/svg"><title>Radio Icon</title><path stroke="null" fill="currentColor" d="M13.54 62.9C.84 48.03 2.6 25.6 17.47 12.9c1.02-.86 2.14-1.7 3.54-2.62l-1.95-2.95c-1.52 1-2.75 1.93-3.88 2.88C7.25 16.98 2.44 26.43 1.62 36.8c-.8 10.4 2.46 20.47 9.23 28.4 2.34 2.74 5.1 5.17 8.2 7.2L21 69.46c-2.82-1.86-5.33-4.07-7.46-6.56zm13.14-39.2c1.1-.94 2.27-1.75 3.52-2.45l-1.72-3.1c-1.46.8-2.83 1.76-4.1 2.84-5.04 4.3-8.1 10.3-8.62 16.92-.52 6.6 1.57 13.03 5.87 18.07 1.92 2.23 4.22 4.1 6.87 5.57l1.7-3.1c-2.26-1.26-4.23-2.87-5.87-4.8-7.62-8.9-6.56-22.36 2.36-29.98zm13.82 5.53c-5.86 0-10.63 4.77-10.63 10.64S34.64 50.5 40.5 50.5s10.64-4.77 10.64-10.63-4.77-10.64-10.64-10.64zm0 17.73c-3.9 0-7.1-3.2-7.1-7.1 0-3.9 3.2-7.08 7.1-7.08 3.9 0 7.1 3.18 7.1 7.1 0 3.9-3.2 7.08-7.1 7.08zm29.66-32.42c-2.34-2.74-5.1-5.17-8.2-7.22L60 10.28c2.83 1.86 5.34 4.07 7.46 6.56 6.15 7.2 9.13 16.37 8.4 25.8-.76 9.45-5.14 18.04-12.34 24.2-1 .86-2.14 1.7-3.53 2.6l1.94 2.96c1.5-.98 2.77-1.92 3.88-2.88 7.92-6.76 12.74-16.2 13.55-26.6.83-10.38-2.45-20.46-9.2-28.38zm-10.78 9.2c-1.92-2.23-4.23-4.1-6.87-5.57l-1.7 3.1c2.26 1.26 4.24 2.87 5.88 4.8 3.7 4.3 5.48 9.8 5.03 15.47-.44 5.67-3.06 10.82-7.38 14.5-1.08.93-2.27 1.76-3.5 2.45l1.7 3.1c1.46-.8 2.84-1.77 4.1-2.84 5.04-4.3 8.1-10.32 8.63-16.93.5-6.6-1.57-13.02-5.88-18.07z" fill-rule="evenodd"/></svg>